<svg width="454" height="115" viewBox="0 0 454 115" fill="none" xmlns="http://www.w3.org/2000/svg">
<path d="M0 20L454 0V95L0 115V20Z" fill="#FFF70B"/>
<path d="M396.086 91.368C392.075 91.368 388.278 90.6 384.694 89.064C381.195 87.528 378.123 85.352 375.478 82.536C372.918 79.6347 370.913 76.2213 369.462 72.296C368.011 68.2853 367.286 63.8053 367.286 58.856V55.784C367.286 50.8347 368.011 46.3973 369.462 42.472C370.913 38.4613 372.918 35.048 375.478 32.232C378.123 29.3307 381.195 27.1547 384.694 25.704C388.193 24.168 392.033 23.4 396.214 23.4H397.75C403.041 23.4 407.691 24.5093 411.702 26.728C415.713 28.8613 418.87 31.9333 421.174 35.944C423.478 39.8693 424.63 44.648 424.63 50.28H413.11C413.11 46.0987 412.427 42.728 411.062 40.168C409.697 37.5227 407.819 35.6027 405.43 34.408C403.126 33.128 400.395 32.488 397.238 32.488C392.63 32.488 388.705 34.1947 385.462 37.608C382.305 40.936 380.726 46.0987 380.726 53.096V61.672C380.726 68.4133 382.262 73.5333 385.334 77.032C388.491 80.5307 392.587 82.28 397.622 82.28C400.694 82.28 403.382 81.6827 405.686 80.488C408.075 79.208 409.91 77.288 411.19 74.728C412.555 72.0827 413.238 68.6693 413.238 64.488H424.63C424.63 70.2053 423.435 75.0693 421.046 79.08C418.742 83.0907 415.542 86.1627 411.446 88.296C407.435 90.344 402.827 91.368 397.622 91.368H396.086Z" fill="black"/>
<path d="M302.824 113.256V24.68H313.192L314.6 34.024C316.477 30.5253 319.123 27.88 322.536 26.088C326.035 24.296 330.173 23.4 334.952 23.4C339.901 23.4 344.296 24.5947 348.136 26.984C352.061 29.288 355.133 32.872 357.352 37.736C359.656 42.6 360.808 48.9147 360.808 56.68V58.344C360.808 65.512 359.613 71.5707 357.224 76.52C354.835 81.384 351.635 85.096 347.624 87.656C343.699 90.1307 339.304 91.368 334.44 91.368C330.088 91.368 326.291 90.5573 323.048 88.936C319.891 87.3147 317.416 85.3093 315.624 82.92V113.256H302.824ZM331.88 82.152C336.573 82.152 340.413 80.4453 343.4 77.032C346.387 73.6187 347.88 68.328 347.88 61.16V53.736C347.88 48.5307 347.155 44.392 345.704 41.32C344.253 38.248 342.291 36.0293 339.816 34.664C337.427 33.2133 334.781 32.488 331.88 32.488C329.064 32.488 326.419 33.1707 323.944 34.536C321.469 35.816 319.464 38.0347 317.928 41.192C316.392 44.264 315.624 48.4453 315.624 53.736V61.16C315.624 68.328 317.16 73.6187 320.232 77.032C323.304 80.4453 327.187 82.152 331.88 82.152Z" fill="black"/>
<path d="M245.786 90.088V34.664H229.274V24.68H256.154L256.794 34.28C258.33 30.8667 260.677 28.2213 263.834 26.344C267.077 24.3813 270.789 23.4 274.97 23.4C281.37 23.4 286.277 25.32 289.69 29.16C293.189 32.9147 294.938 37.736 294.938 43.624C294.938 44.5627 294.895 45.4587 294.81 46.312C294.81 47.08 294.725 48.0187 294.554 49.128H283.674V46.44C283.674 44.136 283.205 42.0027 282.266 40.04C281.413 38.0773 280.047 36.4987 278.17 35.304C276.378 34.024 274.031 33.384 271.13 33.384C268.314 33.384 265.925 34.1947 263.962 35.816C262.085 37.4373 260.677 39.4853 259.738 41.96C258.799 44.4347 258.33 47.0373 258.33 49.768V90.088H245.786ZM228.634 90.088V80.232H287.642V90.088H228.634Z" fill="black"/>
<path d="M193.228 90.088C188.535 90.088 184.268 89.6187 180.428 88.68C176.588 87.7413 173.303 86.3333 170.572 84.456C167.841 82.4933 165.751 80.0187 164.3 77.032C162.849 74.0453 162.124 70.504 162.124 66.408C162.124 61.1173 163.532 56.6373 166.348 52.968C169.164 49.2133 173.089 46.5253 178.124 44.904V44.392C175.393 43.112 172.961 41.6187 170.828 39.912C168.78 38.2053 167.159 36.1573 165.964 33.768C164.769 31.2933 164.172 28.3067 164.172 24.808C164.172 20.8827 164.94 17.4267 166.476 14.44C168.097 11.4533 170.231 8.97867 172.876 7.016C175.607 5.05333 178.679 3.56 182.092 2.536C185.591 1.512 189.26 1 193.1 1C195.831 1 198.476 1.256 201.036 1.768V12.392C198.732 11.7093 196.385 11.368 193.996 11.368C190.924 11.368 188.108 11.88 185.548 12.904C182.988 13.928 180.897 15.5493 179.276 17.768C177.74 19.9013 176.972 22.5893 176.972 25.832C176.972 28.7333 177.697 31.2507 179.148 33.384C180.684 35.5173 182.732 37.1813 185.292 38.376C187.937 39.5707 190.839 40.168 193.996 40.168H208.332L212.172 21.096H220.492V40.168H232.396V50.024H220.492V90.088H193.228ZM193.868 80.232H208.076V50.024H193.612C189.601 50.024 186.188 50.7493 183.372 52.2C180.641 53.5653 178.551 55.4427 177.1 57.832C175.735 60.136 175.052 62.824 175.052 65.896C175.052 70.6747 176.716 74.2587 180.044 76.648C183.372 79.0373 187.98 80.232 193.868 80.232Z" fill="black"/>
<path d="M102.654 90.088L87.806 24.68H98.43L109.694 72.168H110.206L120.83 24.68H132.99L142.846 72.168H143.358L154.366 24.68H164.606L150.142 90.088H137.214L127.102 41.192H126.59L115.454 90.088H102.654Z" fill="black"/>
<path d="M57.52 91.368C52.144 91.368 47.3653 90.6427 43.184 89.192C39.088 87.656 35.8453 85.48 33.456 82.664C31.152 79.7627 30 76.3493 30 72.424C30 72.168 30 71.784 30 71.272C30 70.76 30.0427 70.2053 30.128 69.608H41.136V70.888C41.136 74.472 42.672 77.288 45.744 79.336C48.9013 81.2987 53.3813 82.28 59.184 82.28C64.3893 82.28 68.3147 81.384 70.96 79.592C73.6907 77.7147 75.056 75.2827 75.056 72.296C75.056 70.3333 74.5013 68.712 73.392 67.432C72.2827 66.152 70.2773 65.0427 67.376 64.104C64.56 63.1653 60.464 62.2693 55.088 61.416C49.3707 60.392 44.7627 59.1547 41.264 57.704C37.7653 56.168 35.248 54.2053 33.712 51.816C32.176 49.3413 31.408 46.2693 31.408 42.6C31.408 38.3333 32.56 34.792 34.864 31.976C37.168 29.16 40.368 27.0267 44.464 25.576C48.6453 24.1253 53.5093 23.4 59.056 23.4C63.92 23.4 68.272 24.1253 72.112 25.576C76.0373 27.0267 79.152 29.0747 81.456 31.72C83.76 34.28 84.912 37.3947 84.912 41.064C84.912 41.32 84.912 41.6187 84.912 41.96C84.912 42.3013 84.8267 42.7707 84.656 43.368H73.52C73.52 40.296 72.7947 37.992 71.344 36.456C69.9787 34.8347 68.1013 33.768 65.712 33.256C63.408 32.6587 60.848 32.36 58.032 32.36C48.1333 32.36 43.184 35.432 43.184 41.576C43.184 43.1973 43.696 44.5627 44.72 45.672C45.744 46.696 47.5787 47.6347 50.224 48.488C52.9547 49.3413 56.8373 50.2373 61.872 51.176C68.1013 52.2853 73.008 53.6507 76.592 55.272C80.2613 56.8933 82.9067 58.984 84.528 61.544C86.1493 64.0187 86.96 67.2613 86.96 71.272C86.96 75.7947 85.7653 79.5493 83.376 82.536C81.072 85.5227 77.7013 87.7413 73.264 89.192C68.912 90.6427 63.664 91.368 57.52 91.368Z" fill="black"/>
</svg>
